<svg xmlns="http://www.w3.org/2000/svg" version="1.1" xmlns:xlink="http://www.w3.org/1999/xlink" width="1000" height="1000"><g clip-path="url(#SvgjsClipPath1003)"><rect width="1000" height="1000" fill="#ffffff"></rect><g transform="matrix(3.5,0,0,3.5,150,150)"><svg xmlns="http://www.w3.org/2000/svg" version="1.1" xmlns:xlink="http://www.w3.org/1999/xlink" width="200" height="200"><svg xmlns="http://www.w3.org/2000/svg" version="1.1" xmlns:xlink="http://www.w3.org/1999/xlink" viewBox="0 0 200 200"><rect width="200" height="200" fill="url('#gradient')"></rect><defs><linearGradient id="gradient" gradientTransform="rotate(45 0.5 0.5)"><stop offset="0%" stop-color="#f1eee5"></stop><stop offset="100%" stop-color="#d5c3a1"></stop></linearGradient><clipPath id="SvgjsClipPath1003"><rect width="1000" height="1000" x="0" y="0" rx="350" ry="350"></rect></clipPath></defs><g><g fill="#1d425b" transform="matrix(6.849498327759197,0,0,6.849498327759197,1.0265053028247024,148.69930889136018)" stroke="#778ca7" stroke-width="0.2"><path d="M4.73-14.22L4.73 0L1.31 0L1.31-14.22L4.73-14.22ZM6.89-10.57L9.98-10.57L10.09-9.33Q11.18-10.76 13.11-10.76L13.11-10.76Q14.76-10.76 15.57-9.78Q16.39-8.79 16.42-6.81L16.42-6.81L16.42 0L13.12 0L13.12-6.67Q13.12-7.47 12.79-7.85Q12.47-8.22 11.62-8.22L11.62-8.22Q10.65-8.22 10.19-7.46L10.19-7.46L10.19 0L6.89 0L6.89-10.57ZM20.81-10.57L22.45-3.92L24.12-10.57L27.59-10.57L24.14 0L20.78 0L17.33-10.57L20.81-10.57Z"></path></g></g></svg></svg></g></g></svg>